<mxfile host="app.diagrams.net">
  <diagram name="Icons" id="icons-diagram">
    <mxGraphModel dx="1000" dy="1000" grid="1" gridSize="10" guides="1" tooltips="1" connect="1" arrows="1" fold="1" page="1" pageScale="1" pageWidth="827" pageHeight="1169" math="0" shadow="0">
      <root>
        <mxCell id="0"/>
        <mxCell id="1" parent="0"/>
        
        <!-- ETE Request Intake Icon -->
        <mxCell id="2" value="ðŸ“„ Intake" style="shape=ellipse;whiteSpace=wrap;html=1;" vertex="1" parent="1">
          <mxGeometry x="40" y="40" width="80" height="80" as="geometry"/>
        </mxCell>

        <!-- Signal Collectors Icon -->
        <mxCell id="3" value="ðŸ“¡ Signal" style="shape=ellipse;whiteSpace=wrap;html=1;" vertex="1" parent="1">
          <mxGeometry x="160" y="40" width="80" height="80" as="geometry"/>
        </mxCell>

        <!-- Slot Indexer Icon -->
        <mxCell id="4" value="ðŸ—‚ Index" style="shape=ellipse;whiteSpace=wrap;html=1;" vertex="1" parent="1">
          <mxGeometry x="280" y="40" width="80" height="80" as="geometry"/>
        </mxCell>

        <!-- Executing Plan Icon -->
        <mxCell id="5" value="âš™ Plan" style="shape=ellipse;whiteSpace=wrap;html=1;" vertex="1" parent="1">
          <mxGeometry x="400" y="40" width="80" height="80" as="geometry"/>
        </mxCell>

        <!-- Marker Synthesizer Icon -->
        <mxCell id="6" value="ðŸ”¬ Marker" style="shape=ellipse;whiteSpace=wrap;html=1;" vertex="1" parent="1">
          <mxGeometry x="520" y="40" width="80" height="80" as="geometry"/>
        </mxCell>

        <!-- Override Module Icon -->
        <mxCell id="7" value="ðŸ”§ Override" style="shape=ellipse;whiteSpace=wrap;html=1;" vertex="1" parent="1">
          <mxGeometry x="640" y="40" width="80" height="80" as="geometry"/>
        </mxCell>

        <!-- Drift & Conflict Manager Icon -->
        <mxCell id="8" value="âš– Conflict" style="shape=ellipse;whiteSpace=wrap;html=1;" vertex="1" parent="1">
          <mxGeometry x="760" y="40" width="80" height="80" as="geometry"/>
        </mxCell>

        <!-- Executor Icon -->
        <mxCell id="9" value="ðŸš€ Executor" style="shape=ellipse;whiteSpace=wrap;html=1;" vertex="1" parent="1">
          <mxGeometry x="880" y="40" width="80" height="80" as="geometry"/>
        </mxCell>

      </root>
    </mxGraphModel>
  </diagram>
</mxfile>